<?xml version="1.0" encoding="UTF-8" standalone="no"?>
<!DOCTYPE svg PUBLIC "-//W3C//DTD SVG 1.1//EN" "http://www.w3.org/Graphics/SVG/1.1/DTD/svg11.dtd">
<svg width="100%" height="100%" viewBox="0 0 493 492" version="1.1" xmlns="http://www.w3.org/2000/svg" xmlns:xlink="http://www.w3.org/1999/xlink" xml:space="preserve" xmlns:serif="http://www.serif.com/" style="fill-rule:evenodd;clip-rule:evenodd;stroke-linecap:round;stroke-linejoin:round;stroke-miterlimit:1.5;">
    <g transform="matrix(1,0,0,1,-119.316,-65.0526)">
        <circle cx="366.316" cy="311.053" r="245.263" style="fill:rgb(211,212,244);"/>
    </g>
    <g transform="matrix(1,0,0,1,26.4917,181.054)">
        <text x="93.158px" y="115.789px" style="font-family:'FiraCode-Regular', 'Fira Code', monospace;font-size:144px;fill:rgb(10,19,45);">L</text>
    </g>
    <g transform="matrix(1,0,0,1,184.669,181.054)">
        <text x="93.158px" y="115.789px" style="font-family:'FiraCode-Regular', 'Fira Code', monospace;font-size:144px;fill:rgb(10,19,45);">R</text>
    </g>
    <g transform="matrix(1.62304,-0.233229,0.244237,1.69965,-433.327,-151.51)">
        <path d="M438.149,195.789L312.118,389.474" style="fill:none;stroke:rgb(104,69,230);stroke-width:2.98px;"/>
    </g>
    <g transform="matrix(1,0,0,1,-133,-54)">
        <g transform="matrix(1.40172,0,0,0.826641,-79.9203,52.0077)">
            <path d="M198.947,300L272.662,160.526L198.947,300Z" style="fill:none;stroke:rgb(104,69,230);stroke-width:6.95px;"/>
        </g>
        <g transform="matrix(-1.40172,0,0,0.826641,581.142,167.302)">
            <path d="M198.947,300L272.662,160.526L198.947,300Z" style="fill:none;stroke:rgb(104,69,230);stroke-width:6.95px;"/>
        </g>
    </g>
    <g transform="matrix(1,0,0,1,-146.537,-54)">
        <g transform="matrix(-1.40172,0,0,0.826641,856.405,52.0077)">
            <path d="M198.947,300L272.662,160.526L198.947,300Z" style="fill:none;stroke:rgb(104,69,230);stroke-width:6.95px;"/>
        </g>
        <g transform="matrix(1.40172,0,0,0.826641,195.343,167.302)">
            <path d="M198.947,300L272.662,160.526L198.947,300Z" style="fill:none;stroke:rgb(104,69,230);stroke-width:6.95px;"/>
        </g>
    </g>
</svg>
