<?xml version="1.0" encoding="UTF-8" standalone="no"?>
<!DOCTYPE svg PUBLIC "-//W3C//DTD SVG 1.1//EN" "http://www.w3.org/Graphics/SVG/1.1/DTD/svg11.dtd">
<svg width="100%" height="100%" viewBox="0 0 800 600" version="1.1" xmlns="http://www.w3.org/2000/svg" xmlns:xlink="http://www.w3.org/1999/xlink" xml:space="preserve" xmlns:serif="http://www.serif.com/" style="fill-rule:evenodd;clip-rule:evenodd;stroke-linejoin:round;stroke-miterlimit:2;">
    <g transform="matrix(1,0,0,1,179.492,235.054)">
        <path d="M113.17,115.789L170.918,115.789L172.395,104.343L126.019,104.343L126.019,14.103L113.17,14.103L113.17,115.789Z" style="fill:none;fill-rule:nonzero;stroke:#d3d4f4;stroke-width:7px;"/>
        <g transform="matrix(144,0,0,144,93.1579,115.789)">
            <path d="M0.139,-0L0.54,-0L0.55,-0.079L0.228,-0.079L0.228,-0.706L0.139,-0.706L0.139,-0Z" style="fill:#d3d4f4;fill-rule:nonzero;"/>
        </g>
    </g>
    <g transform="matrix(1,0,0,1,337.669,235.054)">
        <path d="M172.543,42.608C172.543,23.851 159.398,14.103 134.29,14.103L108.149,14.103L108.149,115.789L120.998,115.789L120.998,72.146L134.733,72.146L162.499,115.789L177.859,115.789L147.73,70.669C161.687,67.273 172.543,57.894 172.543,42.608ZM158.807,42.608C158.807,56.713 150.389,62.103 135.767,62.103L120.998,62.103L120.998,24.294L135.767,24.294C151.423,24.294 158.807,29.611 158.807,42.608Z" style="fill:#d3d4f4;fill-rule:nonzero;stroke:#d3d4f4;stroke-width:7px;"/>
    </g>
    <g transform="matrix(1.62304,-0.233229,0.244237,1.69965,-280.327,-97.5099)">
        <path d="M438.149,195.789L312.118,389.474" style="fill:none;stroke:#6845e6;stroke-width:2.98px;stroke-linecap:round;stroke-miterlimit:1.5;"/>
    </g>
    <g transform="matrix(1,0,0,1,20,-5.68434e-14)">
        <g transform="matrix(1.40172,0,0,0.826641,-79.9203,52.0077)">
            <path d="M198.947,300L272.662,160.526L198.947,300Z" style="fill:none;stroke:#6845e6;stroke-width:6.95px;stroke-linecap:round;stroke-miterlimit:1.5;"/>
        </g>
        <g transform="matrix(-1.40172,0,0,0.826641,581.142,167.302)">
            <path d="M198.947,300L272.662,160.526L198.947,300Z" style="fill:none;stroke:#6845e6;stroke-width:6.95px;stroke-linecap:round;stroke-miterlimit:1.5;"/>
        </g>
    </g>
    <g transform="matrix(1,0,0,1,6.4626,-5.68434e-14)">
        <g transform="matrix(-1.40172,0,0,0.826641,856.405,52.0077)">
            <path d="M198.947,300L272.662,160.526L198.947,300Z" style="fill:none;stroke:#6845e6;stroke-width:6.95px;stroke-linecap:round;stroke-miterlimit:1.5;"/>
        </g>
        <g transform="matrix(1.40172,0,0,0.826641,195.343,167.302)">
            <path d="M198.947,300L272.662,160.526L198.947,300Z" style="fill:none;stroke:#6845e6;stroke-width:6.95px;stroke-linecap:round;stroke-miterlimit:1.5;"/>
        </g>
    </g>
</svg>
