<?xml version="1.0" encoding="UTF-8" standalone="no"?><!DOCTYPE svg PUBLIC "-//W3C//DTD SVG 1.1//EN" "http://www.w3.org/Graphics/SVG/1.1/DTD/svg11.dtd"><svg width="100%" height="100%" viewBox="0 0 675 675" version="1.1" xmlns="http://www.w3.org/2000/svg" xmlns:xlink="http://www.w3.org/1999/xlink" xml:space="preserve" xmlns:serif="http://www.serif.com/" style="fill-rule:evenodd;clip-rule:evenodd;stroke-linecap:round;stroke-linejoin:round;stroke-miterlimit:1.5;"><circle cx="337.25" cy="337.25" r="337.25" style="fill:#0a132d;"/><path d="M109.25,322.346l7.776,0l0,27.264l16.848,0l0,6.336l-24.624,0l0,-33.6Z" style="fill:#d3d4f4;fill-rule:nonzero;"/><path d="M163.538,330.122l0,25.824l-7.104,0l0,-3.072c-0.992,1.12 -2.176,1.976 -3.552,2.568c-1.376,0.592 -2.864,0.888 -4.464,0.888c-3.392,0 -6.08,-0.976 -8.064,-2.928c-1.984,-1.952 -2.976,-4.848 -2.976,-8.688l0,-14.592l7.488,0l0,13.488c0,4.16 1.744,6.24 5.232,6.24c1.792,0 3.232,-0.584 4.32,-1.752c1.088,-1.168 1.632,-2.904 1.632,-5.208l0,-12.768l7.488,0Z" style="fill:#d3d4f4;fill-rule:nonzero;"/><path d="M181.586,345.818l-3.6,3.552l0,6.576l-7.488,0l0,-35.616l7.488,0l0,20.16l10.944,-10.368l8.928,0l-10.752,10.944l11.712,14.88l-9.072,0l-8.16,-10.128Z" style="fill:#d3d4f4;fill-rule:nonzero;"/><path d="M226.37,343.13c0,0.096 -0.048,0.768 -0.144,2.016l-19.536,0c0.352,1.6 1.184,2.864 2.496,3.792c1.312,0.928 2.944,1.392 4.896,1.392c1.344,0 2.536,-0.2 3.576,-0.6c1.04,-0.4 2.008,-1.032 2.904,-1.896l3.984,4.32c-2.432,2.784 -5.984,4.176 -10.656,4.176c-2.912,0 -5.488,-0.568 -7.728,-1.704c-2.24,-1.136 -3.968,-2.712 -5.184,-4.728c-1.216,-2.016 -1.824,-4.304 -1.824,-6.864c0,-2.528 0.6,-4.808 1.8,-6.84c1.2,-2.032 2.848,-3.616 4.944,-4.752c2.096,-1.136 4.44,-1.704 7.032,-1.704c2.528,0 4.816,0.544 6.864,1.632c2.048,1.088 3.656,2.648 4.824,4.68c1.168,2.032 1.752,4.392 1.752,7.08Zm-13.392,-7.728c-1.696,0 -3.12,0.48 -4.272,1.44c-1.152,0.96 -1.856,2.272 -2.112,3.936l12.72,0c-0.256,-1.632 -0.96,-2.936 -2.112,-3.912c-1.152,-0.976 -2.56,-1.464 -4.224,-1.464Z" style="fill:#d3d4f4;fill-rule:nonzero;"/><path d="M266.882,355.946l-6.48,-9.36l-0.384,0l-6.768,0l0,9.36l-7.776,0l0,-33.6l14.544,0c2.976,0 5.56,0.496 7.752,1.488c2.192,0.992 3.88,2.4 5.064,4.224c1.184,1.824 1.776,3.984 1.776,6.48c0,2.496 -0.6,4.648 -1.8,6.456c-1.2,1.808 -2.904,3.192 -5.112,4.152l7.536,10.8l-8.352,0Zm-0.144,-21.408c0,-1.888 -0.608,-3.336 -1.824,-4.344c-1.216,-1.008 -2.992,-1.512 -5.328,-1.512l-6.336,0l0,11.712l6.336,0c2.336,0 4.112,-0.512 5.328,-1.536c1.216,-1.024 1.824,-2.464 1.824,-4.32Z" style="fill:#d3d4f4;fill-rule:nonzero;"/><path d="M306.242,330.122l0,25.824l-7.104,0l0,-3.072c-0.992,1.12 -2.176,1.976 -3.552,2.568c-1.376,0.592 -2.864,0.888 -4.464,0.888c-3.392,0 -6.08,-0.976 -8.064,-2.928c-1.984,-1.952 -2.976,-4.848 -2.976,-8.688l0,-14.592l7.488,0l0,13.488c0,4.16 1.744,6.24 5.232,6.24c1.792,0 3.232,-0.584 4.32,-1.752c1.088,-1.168 1.632,-2.904 1.632,-5.208l0,-12.768l7.488,0Z" style="fill:#d3d4f4;fill-rule:nonzero;"/><path d="M325.49,356.33c-2.72,0 -5.16,-0.568 -7.32,-1.704c-2.16,-1.136 -3.848,-2.712 -5.064,-4.728c-1.216,-2.016 -1.824,-4.304 -1.824,-6.864c0,-2.56 0.608,-4.848 1.824,-6.864c1.216,-2.016 2.904,-3.592 5.064,-4.728c2.16,-1.136 4.6,-1.704 7.32,-1.704c2.72,0 5.152,0.568 7.296,1.704c2.144,1.136 3.824,2.712 5.04,4.728c1.216,2.016 1.824,4.304 1.824,6.864c0,2.56 -0.608,4.848 -1.824,6.864c-1.216,2.016 -2.896,3.592 -5.04,4.728c-2.144,1.136 -4.576,1.704 -7.296,1.704Zm0,-6.144c1.92,0 3.496,-0.648 4.728,-1.944c1.232,-1.296 1.848,-3.032 1.848,-5.208c0,-2.176 -0.616,-3.912 -1.848,-5.208c-1.232,-1.296 -2.808,-1.944 -4.728,-1.944c-1.92,0 -3.504,0.648 -4.752,1.944c-1.248,1.296 -1.872,3.032 -1.872,5.208c0,2.176 0.624,3.912 1.872,5.208c1.248,1.296 2.832,1.944 4.752,1.944Z" style="fill:#d3d4f4;fill-rule:nonzero;"/><path d="M355.73,345.818l-3.6,3.552l0,6.576l-7.488,0l0,-35.616l7.488,0l0,20.16l10.944,-10.368l8.928,0l-10.752,10.944l11.712,14.88l-9.072,0l-8.16,-10.128Z" style="fill:#d3d4f4;fill-rule:nonzero;"/><path d="M386.258,329.738c4,0 7.072,0.952 9.216,2.856c2.144,1.904 3.216,4.776 3.216,8.616l0,14.736l-7.008,0l0,-3.216c-1.408,2.4 -4.032,3.6 -7.872,3.6c-1.984,0 -3.704,-0.336 -5.16,-1.008c-1.456,-0.672 -2.568,-1.6 -3.336,-2.784c-0.768,-1.184 -1.152,-2.528 -1.152,-4.032c0,-2.4 0.904,-4.288 2.712,-5.664c1.808,-1.376 4.6,-2.064 8.376,-2.064l5.952,0c0,-1.632 -0.496,-2.888 -1.488,-3.768c-0.992,-0.88 -2.48,-1.32 -4.464,-1.32c-1.376,0 -2.728,0.216 -4.056,0.648c-1.328,0.432 -2.456,1.016 -3.384,1.752l-2.688,-5.232c1.408,-0.992 3.096,-1.76 5.064,-2.304c1.968,-0.544 3.992,-0.816 6.072,-0.816Zm-0.576,21.552c1.28,0 2.416,-0.296 3.408,-0.888c0.992,-0.592 1.696,-1.464 2.112,-2.616l0,-2.64l-5.136,0c-3.072,0 -4.608,1.008 -4.608,3.024c0,0.96 0.376,1.72 1.128,2.28c0.752,0.56 1.784,0.84 3.096,0.84Z" style="fill:#d3d4f4;fill-rule:nonzero;"/><path d="M405.458,330.122l7.488,0l0,25.824l-7.488,0l0,-25.824Zm3.744,-3.6c-1.376,0 -2.496,-0.4 -3.36,-1.2c-0.864,-0.8 -1.296,-1.792 -1.296,-2.976c0,-1.184 0.432,-2.176 1.296,-2.976c0.864,-0.8 1.984,-1.2 3.36,-1.2c1.376,0 2.496,0.384 3.36,1.152c0.864,0.768 1.296,1.728 1.296,2.88c0,1.248 -0.432,2.28 -1.296,3.096c-0.864,0.816 -1.984,1.224 -3.36,1.224Z" style="fill:#d3d4f4;fill-rule:nonzero;"/><path d="M428.594,356.33c-2.144,0 -4.24,-0.264 -6.288,-0.792c-2.048,-0.528 -3.68,-1.192 -4.896,-1.992l2.496,-5.376c1.152,0.736 2.544,1.336 4.176,1.8c1.632,0.464 3.232,0.696 4.8,0.696c3.168,0 4.752,-0.784 4.752,-2.352c0,-0.736 -0.432,-1.264 -1.296,-1.584c-0.864,-0.32 -2.192,-0.592 -3.984,-0.816c-2.112,-0.32 -3.856,-0.688 -5.232,-1.104c-1.376,-0.416 -2.568,-1.152 -3.576,-2.208c-1.008,-1.056 -1.512,-2.56 -1.512,-4.512c0,-1.632 0.472,-3.08 1.416,-4.344c0.944,-1.264 2.32,-2.248 4.128,-2.952c1.808,-0.704 3.944,-1.056 6.408,-1.056c1.824,0 3.64,0.2 5.448,0.6c1.808,0.4 3.304,0.952 4.488,1.656l-2.496,5.328c-2.272,-1.28 -4.752,-1.92 -7.44,-1.92c-1.6,0 -2.8,0.224 -3.6,0.672c-0.8,0.448 -1.2,1.024 -1.2,1.728c0,0.8 0.432,1.36 1.296,1.68c0.864,0.32 2.24,0.624 4.128,0.912c2.112,0.352 3.84,0.728 5.184,1.128c1.344,0.4 2.512,1.128 3.504,2.184c0.992,1.056 1.488,2.528 1.488,4.416c0,1.6 -0.48,3.024 -1.44,4.272c-0.96,1.248 -2.36,2.216 -4.2,2.904c-1.84,0.688 -4.024,1.032 -6.552,1.032Z" style="fill:#d3d4f4;fill-rule:nonzero;"/><path d="M478.466,329.738c3.232,0 5.8,0.952 7.704,2.856c1.904,1.904 2.856,4.76 2.856,8.568l0,14.784l-7.488,0l0,-13.632c0,-2.048 -0.424,-3.576 -1.272,-4.584c-0.848,-1.008 -2.056,-1.512 -3.624,-1.512c-1.76,0 -3.152,0.568 -4.176,1.704c-1.024,1.136 -1.536,2.824 -1.536,5.064l0,12.96l-7.488,0l0,-13.632c0,-4.064 -1.632,-6.096 -4.896,-6.096c-1.728,0 -3.104,0.568 -4.128,1.704c-1.024,1.136 -1.536,2.824 -1.536,5.064l0,12.96l-7.488,0l0,-25.824l7.152,0l0,2.976c0.96,-1.088 2.136,-1.92 3.528,-2.496c1.392,-0.576 2.92,-0.864 4.584,-0.864c1.824,0 3.472,0.36 4.944,1.08c1.472,0.72 2.656,1.768 3.552,3.144c1.056,-1.344 2.392,-2.384 4.008,-3.12c1.616,-0.736 3.384,-1.104 5.304,-1.104Z" style="fill:#d3d4f4;fill-rule:nonzero;"/><path d="M506.162,329.738c4,0 7.072,0.952 9.216,2.856c2.144,1.904 3.216,4.776 3.216,8.616l0,14.736l-7.008,0l0,-3.216c-1.408,2.4 -4.032,3.6 -7.872,3.6c-1.984,0 -3.704,-0.336 -5.16,-1.008c-1.456,-0.672 -2.568,-1.6 -3.336,-2.784c-0.768,-1.184 -1.152,-2.528 -1.152,-4.032c0,-2.4 0.904,-4.288 2.712,-5.664c1.808,-1.376 4.6,-2.064 8.376,-2.064l5.952,0c0,-1.632 -0.496,-2.888 -1.488,-3.768c-0.992,-0.88 -2.48,-1.32 -4.464,-1.32c-1.376,0 -2.728,0.216 -4.056,0.648c-1.328,0.432 -2.456,1.016 -3.384,1.752l-2.688,-5.232c1.408,-0.992 3.096,-1.76 5.064,-2.304c1.968,-0.544 3.992,-0.816 6.072,-0.816Zm-0.576,21.552c1.28,0 2.416,-0.296 3.408,-0.888c0.992,-0.592 1.696,-1.464 2.112,-2.616l0,-2.64l-5.136,0c-3.072,0 -4.608,1.008 -4.608,3.024c0,0.96 0.376,1.72 1.128,2.28c0.752,0.56 1.784,0.84 3.096,0.84Z" style="fill:#d3d4f4;fill-rule:nonzero;"/><path d="M536.45,345.818l-3.6,3.552l0,6.576l-7.488,0l0,-35.616l7.488,0l0,20.16l10.944,-10.368l8.928,0l-10.752,10.944l11.712,14.88l-9.072,0l-8.16,-10.128Z" style="fill:#d3d4f4;fill-rule:nonzero;"/><path d="M556.85,330.122l7.488,0l0,25.824l-7.488,0l0,-25.824Zm3.744,-3.6c-1.376,0 -2.496,-0.4 -3.36,-1.2c-0.864,-0.8 -1.296,-1.792 -1.296,-2.976c0,-1.184 0.432,-2.176 1.296,-2.976c0.864,-0.8 1.984,-1.2 3.36,-1.2c1.376,0 2.496,0.384 3.36,1.152c0.864,0.768 1.296,1.728 1.296,2.88c0,1.248 -0.432,2.28 -1.296,3.096c-0.864,0.816 -1.984,1.224 -3.36,1.224Z" style="fill:#d3d4f4;fill-rule:nonzero;"/><rect x="653.25" y="318.17" width="21.25" height="50.83" style="fill:#0a132d;"/><rect x="8.75" y="318.17" width="21.25" height="50.83" style="fill:#0a132d;"/><path d="M188.5,178.75l-158.5,158.5l158.5,158.5" style="fill:none;stroke:#6845e6;stroke-width:4px;"/><path d="M486,495.75l158.5,-158.5l-158.5,-158.5" style="fill:none;stroke:#6845e6;stroke-width:4px;"/></svg>