<svg
    xmlns="http://www.w3.org/2000/svg"
    viewBox="0 0 675 675"
    id="vector"
    width="675px"
    height="675px">
    <path
        id="path"
        d="M 337.25 0 C 247.84 0 162.001 35.556 98.778 98.778 C 35.556 162.001 0 247.84 0 337.25 C 0 426.66 35.556 512.499 98.778 575.722 C 162.001 638.944 247.84 674.5 337.25 674.5 C 426.66 674.5 512.499 638.944 575.722 575.722 C 638.944 512.499 674.5 426.66 674.5 337.25 C 674.5 247.84 638.944 162.001 575.722 98.778 C 512.499 35.556 426.66 0 337.25 0 Z"
        fill="#0a132d"
        stroke-width="1"/>
    <path
        id="path_1"
        d="M 109.25 322.346 L 117.026 322.346 L 117.026 349.61 L 133.874 349.61 L 133.874 355.946 L 109.25 355.946 L 109.25 322.346 Z M 163.538 330.122 L 163.538 355.946 L 156.434 355.946 L 156.434 352.874 C 155.442 353.994 154.258 354.85 152.882 355.442 C 151.506 356.034 150.018 356.33 148.418 356.33 C 145.026 356.33 142.338 355.354 140.354 353.402 C 138.37 351.45 137.378 348.554 137.378 344.714 L 137.378 330.122 L 144.866 330.122 L 144.866 343.61 C 144.866 347.77 146.61 349.85 150.098 349.85 C 151.89 349.85 153.33 349.266 154.418 348.098 C 155.506 346.93 156.05 345.194 156.05 342.89 L 156.05 330.122 L 163.538 330.122 Z M 181.586 345.818 L 177.986 349.37 L 177.986 355.946 L 170.498 355.946 L 170.498 320.33 L 177.986 320.33 L 177.986 340.49 L 188.93 330.122 L 197.858 330.122 L 187.106 341.066 L 198.818 355.946 L 189.746 355.946 L 181.586 345.818 Z M 226.37 343.13 C 226.37 343.226 226.322 343.898 226.226 345.146 L 206.69 345.146 C 207.042 346.746 207.874 348.01 209.186 348.938 C 210.498 349.866 212.13 350.33 214.082 350.33 C 215.426 350.33 216.618 350.13 217.658 349.73 C 218.698 349.33 219.666 348.698 220.562 347.834 L 224.546 352.154 C 222.114 354.938 218.562 356.33 213.89 356.33 C 210.978 356.33 208.402 355.762 206.162 354.626 C 203.922 353.49 202.194 351.914 200.978 349.898 C 199.762 347.882 199.154 345.594 199.154 343.034 C 199.154 340.506 199.754 338.226 200.954 336.194 C 202.154 334.162 203.802 332.578 205.898 331.442 C 207.994 330.306 210.338 329.738 212.93 329.738 C 215.458 329.738 217.746 330.282 219.794 331.37 C 221.842 332.458 223.45 334.018 224.618 336.05 C 225.786 338.082 226.37 340.442 226.37 343.13 Z M 212.978 335.402 C 211.282 335.402 209.858 335.882 208.706 336.842 C 207.554 337.802 206.85 339.114 206.594 340.778 L 219.314 340.778 C 219.058 339.146 218.354 337.842 217.202 336.866 C 216.05 335.89 214.642 335.402 212.978 335.402 Z M 266.882 355.946 L 260.402 346.586 L 253.25 346.586 L 253.25 355.946 L 245.474 355.946 L 245.474 322.346 L 260.018 322.346 C 262.994 322.346 265.578 322.842 267.77 323.834 C 269.962 324.826 271.65 326.234 272.834 328.058 C 274.018 329.882 274.61 332.042 274.61 334.538 C 274.61 337.034 274.01 339.186 272.81 340.994 C 271.61 342.802 269.906 344.186 267.698 345.146 L 275.234 355.946 L 266.882 355.946 Z M 266.738 334.538 C 266.738 332.65 266.13 331.202 264.914 330.194 C 263.698 329.186 261.922 328.682 259.586 328.682 L 253.25 328.682 L 253.25 340.394 L 259.586 340.394 C 261.922 340.394 263.698 339.882 264.914 338.858 C 266.13 337.834 266.738 336.394 266.738 334.538 Z M 306.242 330.122 L 306.242 355.946 L 299.138 355.946 L 299.138 352.874 C 298.146 353.994 296.962 354.85 295.586 355.442 C 294.21 356.034 292.722 356.33 291.122 356.33 C 287.73 356.33 285.042 355.354 283.058 353.402 C 281.074 351.45 280.082 348.554 280.082 344.714 L 280.082 330.122 L 287.57 330.122 L 287.57 343.61 C 287.57 347.77 289.314 349.85 292.802 349.85 C 294.594 349.85 296.034 349.266 297.122 348.098 C 298.21 346.93 298.754 345.194 298.754 342.89 L 298.754 330.122 L 306.242 330.122 Z M 325.49 356.33 C 322.77 356.33 320.33 355.762 318.17 354.626 C 316.01 353.49 314.322 351.914 313.106 349.898 C 311.89 347.882 311.282 345.594 311.282 343.034 C 311.282 340.474 311.89 338.186 313.106 336.17 C 314.322 334.154 316.01 332.578 318.17 331.442 C 320.33 330.306 322.77 329.738 325.49 329.738 C 328.21 329.738 330.642 330.306 332.786 331.442 C 334.93 332.578 336.61 334.154 337.826 336.17 C 339.042 338.186 339.65 340.474 339.65 343.034 C 339.65 345.594 339.042 347.882 337.826 349.898 C 336.61 351.914 334.93 353.49 332.786 354.626 C 330.642 355.762 328.21 356.33 325.49 356.33 Z M 325.49 350.186 C 327.41 350.186 328.986 349.538 330.218 348.242 C 331.45 346.946 332.066 345.21 332.066 343.034 C 332.066 340.858 331.45 339.122 330.218 337.826 C 328.986 336.53 327.41 335.882 325.49 335.882 C 323.57 335.882 321.986 336.53 320.738 337.826 C 319.49 339.122 318.866 340.858 318.866 343.034 C 318.866 345.21 319.49 346.946 320.738 348.242 C 321.986 349.538 323.57 350.186 325.49 350.186 Z M 355.73 345.818 L 352.13 349.37 L 352.13 355.946 L 344.642 355.946 L 344.642 320.33 L 352.13 320.33 L 352.13 340.49 L 363.074 330.122 L 372.002 330.122 L 361.25 341.066 L 372.962 355.946 L 363.89 355.946 L 355.73 345.818 Z M 386.258 329.738 C 390.258 329.738 393.33 330.69 395.474 332.594 C 397.618 334.498 398.69 337.37 398.69 341.21 L 398.69 355.946 L 391.682 355.946 L 391.682 352.73 C 390.274 355.13 387.65 356.33 383.81 356.33 C 381.826 356.33 380.106 355.994 378.65 355.322 C 377.194 354.65 376.082 353.722 375.314 352.538 C 374.546 351.354 374.162 350.01 374.162 348.506 C 374.162 346.106 375.066 344.218 376.874 342.842 C 378.682 341.466 381.474 340.778 385.25 340.778 L 391.202 340.778 C 391.202 339.146 390.706 337.89 389.714 337.01 C 388.722 336.13 387.234 335.69 385.25 335.69 C 383.874 335.69 382.522 335.906 381.194 336.338 C 379.866 336.77 378.738 337.354 377.81 338.09 L 375.122 332.858 C 376.53 331.866 378.218 331.098 380.186 330.554 C 382.154 330.01 384.178 329.738 386.258 329.738 Z M 385.682 351.29 C 386.962 351.29 388.098 350.994 389.09 350.402 C 390.082 349.81 390.786 348.938 391.202 347.786 L 391.202 345.146 L 386.066 345.146 C 382.994 345.146 381.458 346.154 381.458 348.17 C 381.458 349.13 381.834 349.89 382.586 350.45 C 383.338 351.01 384.37 351.29 385.682 351.29 Z M 405.458 330.122 L 412.946 330.122 L 412.946 355.946 L 405.458 355.946 L 405.458 330.122 Z M 409.202 326.522 C 407.826 326.522 406.706 326.122 405.842 325.322 C 404.978 324.522 404.546 323.53 404.546 322.346 C 404.546 321.162 404.978 320.17 405.842 319.37 C 406.706 318.57 407.826 318.17 409.202 318.17 C 410.578 318.17 411.698 318.554 412.562 319.322 C 413.426 320.09 413.858 321.05 413.858 322.202 C 413.858 323.45 413.426 324.482 412.562 325.298 C 411.698 326.114 410.578 326.522 409.202 326.522 Z M 428.594 356.33 C 426.45 356.33 424.354 356.066 422.306 355.538 C 420.258 355.01 418.626 354.346 417.41 353.546 L 419.906 348.17 C 421.058 348.906 422.45 349.506 424.082 349.97 C 425.714 350.434 427.314 350.666 428.882 350.666 C 432.05 350.666 433.634 349.882 433.634 348.314 C 433.634 347.578 433.202 347.05 432.338 346.73 C 431.474 346.41 430.146 346.138 428.354 345.914 C 426.242 345.594 424.498 345.226 423.122 344.81 C 421.746 344.394 420.554 343.658 419.546 342.602 C 418.538 341.546 418.034 340.042 418.034 338.09 C 418.034 336.458 418.506 335.01 419.45 333.746 C 420.394 332.482 421.77 331.498 423.578 330.794 C 425.386 330.09 427.522 329.738 429.986 329.738 C 431.81 329.738 433.626 329.938 435.434 330.338 C 437.242 330.738 438.738 331.29 439.922 331.994 L 437.426 337.322 C 435.154 336.042 432.674 335.402 429.986 335.402 C 428.386 335.402 427.186 335.626 426.386 336.074 C 425.586 336.522 425.186 337.098 425.186 337.802 C 425.186 338.602 425.618 339.162 426.482 339.482 C 427.346 339.802 428.722 340.106 430.61 340.394 C 432.722 340.746 434.45 341.122 435.794 341.522 C 437.138 341.922 438.306 342.65 439.298 343.706 C 440.29 344.762 440.786 346.234 440.786 348.122 C 440.786 349.722 440.306 351.146 439.346 352.394 C 438.386 353.642 436.986 354.61 435.146 355.298 C 433.306 355.986 431.122 356.33 428.594 356.33 Z M 478.466 329.738 C 481.698 329.738 484.266 330.69 486.17 332.594 C 488.074 334.498 489.026 337.354 489.026 341.162 L 489.026 355.946 L 481.538 355.946 L 481.538 342.314 C 481.538 340.266 481.114 338.738 480.266 337.73 C 479.418 336.722 478.21 336.218 476.642 336.218 C 474.882 336.218 473.49 336.786 472.466 337.922 C 471.442 339.058 470.93 340.746 470.93 342.986 L 470.93 355.946 L 463.442 355.946 L 463.442 342.314 C 463.442 338.25 461.81 336.218 458.546 336.218 C 456.818 336.218 455.442 336.786 454.418 337.922 C 453.394 339.058 452.882 340.746 452.882 342.986 L 452.882 355.946 L 445.394 355.946 L 445.394 330.122 L 452.546 330.122 L 452.546 333.098 C 453.506 332.01 454.682 331.178 456.074 330.602 C 457.466 330.026 458.994 329.738 460.658 329.738 C 462.482 329.738 464.13 330.098 465.602 330.818 C 467.074 331.538 468.258 332.586 469.154 333.962 C 470.21 332.618 471.546 331.578 473.162 330.842 C 474.778 330.106 476.546 329.738 478.466 329.738 Z M 506.162 329.738 C 510.162 329.738 513.234 330.69 515.378 332.594 C 517.522 334.498 518.594 337.37 518.594 341.21 L 518.594 355.946 L 511.586 355.946 L 511.586 352.73 C 510.178 355.13 507.554 356.33 503.714 356.33 C 501.73 356.33 500.01 355.994 498.554 355.322 C 497.098 354.65 495.986 353.722 495.218 352.538 C 494.45 351.354 494.066 350.01 494.066 348.506 C 494.066 346.106 494.97 344.218 496.778 342.842 C 498.586 341.466 501.378 340.778 505.154 340.778 L 511.106 340.778 C 511.106 339.146 510.61 337.89 509.618 337.01 C 508.626 336.13 507.138 335.69 505.154 335.69 C 503.778 335.69 502.426 335.906 501.098 336.338 C 499.77 336.77 498.642 337.354 497.714 338.09 L 495.026 332.858 C 496.434 331.866 498.122 331.098 500.09 330.554 C 502.058 330.01 504.082 329.738 506.162 329.738 Z M 505.586 351.29 C 506.866 351.29 508.002 350.994 508.994 350.402 C 509.986 349.81 510.69 348.938 511.106 347.786 L 511.106 345.146 L 505.97 345.146 C 502.898 345.146 501.362 346.154 501.362 348.17 C 501.362 349.13 501.738 349.89 502.49 350.45 C 503.242 351.01 504.274 351.29 505.586 351.29 Z M 536.45 345.818 L 532.85 349.37 L 532.85 355.946 L 525.362 355.946 L 525.362 320.33 L 532.85 320.33 L 532.85 340.49 L 543.794 330.122 L 552.722 330.122 L 541.97 341.066 L 553.682 355.946 L 544.61 355.946 L 536.45 345.818 Z M 556.85 330.122 L 564.338 330.122 L 564.338 355.946 L 556.85 355.946 L 556.85 330.122 Z M 560.594 326.522 C 559.218 326.522 558.098 326.122 557.234 325.322 C 556.37 324.522 555.938 323.53 555.938 322.346 C 555.938 321.162 556.37 320.17 557.234 319.37 C 558.098 318.57 559.218 318.17 560.594 318.17 C 561.97 318.17 563.09 318.554 563.954 319.322 C 564.818 320.09 565.25 321.05 565.25 322.202 C 565.25 323.45 564.818 324.482 563.954 325.298 C 563.09 326.114 561.97 326.522 560.594 326.522 Z"
        fill="#d3d4f4"
        stroke-width="1"/>
    <path
        id="path_2"
        d="M 652.955 318.17 L 674.5 318.17 L 674.5 369 L 652.955 369 Z M 8.75 318.17 L 30.287 318.17 L 30.287 369 L 8.75 369 Z"
        fill="#0a132d"
        stroke-width="1"/>
    <path
        id="path_3"
        d="M 188.639 178.75 L 30.139 337.25 L 188.639 495.75 M 485.861 495.75 L 644.361 337.25 L 485.861 178.75"
        fill="none"
        stroke="#6845e6"
        stroke-width="4"/>
</svg>
